<svg id="ddf8e81f-afd9-4583-9137-de199b78fddc" data-name="Ebene 1" xmlns="http://www.w3.org/2000/svg" viewBox="0 0 153.45 55.36">
  <title>FhDo-Wortmarke_155x56_RGB</title>
  <g>
    <path d="M151.942,9.834a3.1,3.1,0,0,0-.709-2.088,2.439,2.439,0,0,0-3.362,0,3.251,3.251,0,0,0-.709,2.088Zm-4.78,1.934a2.811,2.811,0,0,0,.787,2.154,2.561,2.561,0,0,0,1.919.748,3.34,3.34,0,0,0,2.478-1.145L154,14.985a5.285,5.285,0,0,1-4.083,1.888,5.748,5.748,0,0,1-1.747-.271,4.132,4.132,0,0,1-.829-.4,3.9,3.9,0,0,1-.8-.53,4.649,4.649,0,0,1-1.169-1.829,7.438,7.438,0,0,1-.49-2.935,8.412,8.412,0,0,1,.425-2.89A5.073,5.073,0,0,1,146.4,6.17a4.042,4.042,0,0,1,1.518-.993,4.733,4.733,0,0,1,1.638-.306,4.637,4.637,0,0,1,3.286,1.323,4.91,4.91,0,0,1,1.386,3.64v1.934ZM139.472.28h2.283V13.725c0,.536.284.8.855.8h.788v2.2h-1.016a3.218,3.218,0,0,1-2.057-.639,2.581,2.581,0,0,1-.853-2.186ZM127.057,5.015h2.282v6.99a2.555,2.555,0,0,0,.647,1.855,2.14,2.14,0,0,0,1.622.667,2.1,2.1,0,0,0,1.61-.667,2.58,2.58,0,0,0,.636-1.855V5.015h2.282V16.73h-2.282V15.478h-.044a3.605,3.605,0,0,1-2.943,1.4,3.789,3.789,0,0,1-2.551-1.06,3.705,3.705,0,0,1-1.259-3ZM114.643.28h2.282V6.26h.044a3.625,3.625,0,0,1,2.955-1.389A3.831,3.831,0,0,1,122.507,5.9a4.036,4.036,0,0,1,1.215,3.046V16.73h-2.283V9.748a2.562,2.562,0,0,0-.635-1.875,2.124,2.124,0,0,0-1.611-.655,2.154,2.154,0,0,0-1.621.655,2.529,2.529,0,0,0-.647,1.875V16.73h-2.282Zm-1.891,14.573A6.153,6.153,0,0,1,111,16.278a4.8,4.8,0,0,1-2.33.6,5.025,5.025,0,0,1-3.529-1.411q-1.572-1.411-1.616-4.573.043-3.195,1.618-4.629a4.941,4.941,0,0,1,3.529-1.389A5.037,5.037,0,0,1,111,5.435a5.836,5.836,0,0,1,1.749,1.475l-1.684,1.543a2.829,2.829,0,0,0-2.307-1.235q-2.908-.045-2.952,3.671.043,3.695,2.952,3.638a2.764,2.764,0,0,0,2.307-1.224Zm-19.12-1.7a4.643,4.643,0,0,0,3.589,1.515,2.966,2.966,0,0,0,1.609-.395,1.246,1.246,0,0,0,.624-1.108.983.983,0,0,0-.372-.881A1.9,1.9,0,0,0,98.064,12l-2.013-.182a3.76,3.76,0,0,1-2.33-.995,3.061,3.061,0,0,1-.941-2.339,3.219,3.219,0,0,1,1.235-2.712,4.79,4.79,0,0,1,3-.9,8.928,8.928,0,0,1,1.411.1,6.978,6.978,0,0,1,1.17.315,6.67,6.67,0,0,1,1.881,1.183l-1.412,1.7a6.976,6.976,0,0,0-1.39-.811,4.486,4.486,0,0,0-1.663-.286,2.2,2.2,0,0,0-1.5.4,1.3,1.3,0,0,0-.449,1.018.807.807,0,0,0,.34.691A1.932,1.932,0,0,0,96.56,9.6l1.882.147A3.468,3.468,0,0,1,101,10.854a3.831,3.831,0,0,1,.732,2.41,3.082,3.082,0,0,1-1.344,2.636,5.7,5.7,0,0,1-3.356.973,7.1,7.1,0,0,1-5-2.091ZM80.875.28h2.282V6.26H83.2a3.625,3.625,0,0,1,2.955-1.389A3.831,3.831,0,0,1,88.739,5.9a4.036,4.036,0,0,1,1.215,3.046V16.73H87.671V9.748a2.562,2.562,0,0,0-.634-1.875,2.125,2.125,0,0,0-1.612-.655,2.155,2.155,0,0,0-1.621.655,2.529,2.529,0,0,0-.647,1.875V16.73H80.875ZM78.984,14.853a6.153,6.153,0,0,1-1.75,1.425,4.8,4.8,0,0,1-2.33.6,5.025,5.025,0,0,1-3.529-1.411q-1.572-1.411-1.616-4.573Q69.8,7.694,71.377,6.26a4.941,4.941,0,0,1,3.529-1.389,5.037,5.037,0,0,1,2.329.564A5.848,5.848,0,0,1,78.984,6.91L77.3,8.453a2.829,2.829,0,0,0-2.307-1.235q-2.907-.045-2.952,3.671.043,3.695,2.952,3.638A2.763,2.763,0,0,0,77.3,13.3ZM65.57,10.889a11.075,11.075,0,0,0-.109-1.837,2.217,2.217,0,0,0-.447-.974,1.693,1.693,0,0,0-.743-.623,2.376,2.376,0,0,0-1.091-.237,2.413,2.413,0,0,0-1.069.237,2.028,2.028,0,0,0-.764.623,2.782,2.782,0,0,0-.426.975,9.037,9.037,0,0,0-.131,1.813,8.772,8.772,0,0,0,.131,1.791,3.028,3.028,0,0,0,.426,1.021,2.761,2.761,0,0,0,.764.6,2.317,2.317,0,0,0,1.069.249,2.281,2.281,0,0,0,1.091-.249,2.17,2.17,0,0,0,.743-.6,2.4,2.4,0,0,0,.447-1.021,10.369,10.369,0,0,0,.109-1.768m-7.062-.023a10.566,10.566,0,0,1,.295-2.85,4.153,4.153,0,0,1,.939-1.641,4.287,4.287,0,0,1,1.31-1.043,4.73,4.73,0,0,1,2.128-.461,4.813,4.813,0,0,1,2.172.464,4.11,4.11,0,0,1,1.266,1.049,3.724,3.724,0,0,1,.961,1.638,11.342,11.342,0,0,1,.273,2.844,11.084,11.084,0,0,1-.273,2.824,4.054,4.054,0,0,1-.961,1.681,3.545,3.545,0,0,1-.535.508,2.477,2.477,0,0,1-.731.486,4.439,4.439,0,0,1-2.172.508,4.655,4.655,0,0,1-3.438-1.5A4.557,4.557,0,0,1,58.8,13.69a10.278,10.278,0,0,1-.295-2.824M46.645.28h2.282V6.26h.043a3.626,3.626,0,0,1,2.955-1.389A3.832,3.832,0,0,1,54.509,5.9a4.039,4.039,0,0,1,1.214,3.046V16.73H53.442V9.748a2.559,2.559,0,0,0-.637-1.875,2.119,2.119,0,0,0-1.611-.655,2.158,2.158,0,0,0-1.621.655,2.537,2.537,0,0,0-.646,1.875V16.73H46.645ZM34.23.28h2.283V6.26h.043a3.625,3.625,0,0,1,2.955-1.389A3.831,3.831,0,0,1,42.094,5.9a4.039,4.039,0,0,1,1.215,3.046V16.73H41.027V9.748a2.559,2.559,0,0,0-.637-1.875,2.119,2.119,0,0,0-1.61-.655,2.159,2.159,0,0,0-1.622.655,2.537,2.537,0,0,0-.645,1.875V16.73H34.23ZM32.339,14.853a6.13,6.13,0,0,1-1.751,1.425,4.791,4.791,0,0,1-2.329.6,5.021,5.021,0,0,1-3.528-1.411q-1.575-1.411-1.618-4.573.045-3.195,1.618-4.629a4.946,4.946,0,0,1,3.531-1.389,5.029,5.029,0,0,1,2.327.564,5.816,5.816,0,0,1,1.75,1.475L30.655,8.453a2.83,2.83,0,0,0-2.306-1.235q-2.91-.045-2.953,3.671.044,3.695,2.951,3.638A2.765,2.765,0,0,0,30.655,13.3ZM18.374,11.768H15.642q-1.989.046-1.967,1.417a1.275,1.275,0,0,0,.514,1.021,2.329,2.329,0,0,0,1.628.464,3.887,3.887,0,0,0,2.021-.35q.535-.377.536-1.7Zm0,3.937h-.043a1.919,1.919,0,0,1-.982.875,4.525,4.525,0,0,1-1.811.293,4.05,4.05,0,0,1-2.922-1.038,3.3,3.3,0,0,1-1.08-2.538,3.38,3.38,0,0,1,.938-2.448,3.665,3.665,0,0,1,2.748-1.015h3.152V8.591Q18.4,7.03,16.05,7.074a3.983,3.983,0,0,0-1.342.182,1.668,1.668,0,0,0-.807.73l-1.79-1.415a4.372,4.372,0,0,1,3.83-1.7,5.926,5.926,0,0,1,3.416.836,3.456,3.456,0,0,1,1.3,3.023v8H18.374ZM.777.28H10.95V2.624H3.181V7.487H9.813v2.2H3.181V16.73H.777Z" transform="translate(-0.775 -0.28)" fill="#f55500"/>
    <path d="M93.006,29.325a2.228,2.228,0,0,0-1.237.284,1.777,1.777,0,0,0-.691.839A4.4,4.4,0,0,0,90.8,31.6a13.643,13.643,0,0,0-.066,1.371,12.3,12.3,0,0,0,.066,1.3,4.465,4.465,0,0,0,.274,1.2,1.941,1.941,0,0,0,.691.838,2.046,2.046,0,0,0,1.237.318,2.153,2.153,0,0,0,1.282-.34,1.667,1.667,0,0,0,.648-.861,4.538,4.538,0,0,0,.295-1.191c.014-.431.021-.853.021-1.269q0-.68-.021-1.3a4.508,4.508,0,0,0-.295-1.156,1.663,1.663,0,0,0-.648-.861,2.2,2.2,0,0,0-1.282-.329m2.246,8.3a3.827,3.827,0,0,1-2.944,1.358,3.662,3.662,0,0,1-1.762-.44,3.875,3.875,0,0,1-1.28-1.086,3.017,3.017,0,0,1-.624-1.5,16.66,16.66,0,0,1-.186-2.984,16.726,16.726,0,0,1,.186-3.006,2.97,2.97,0,0,1,.624-1.457,3.491,3.491,0,0,1,3.042-1.525,3.57,3.57,0,0,1,1.62.37,6.509,6.509,0,0,1,1.324,1.01V22.388h2.282v16.45H95.252Zm-19.211-10.5h2.282v1.241h.044a3.63,3.63,0,0,1,2.955-1.383,3.825,3.825,0,0,1,2.583,1.027,4.028,4.028,0,0,1,1.215,3.045v7.785H82.837V31.857A2.564,2.564,0,0,0,82.2,29.98a2.127,2.127,0,0,0-1.61-.655,2.161,2.161,0,0,0-1.622.655,2.536,2.536,0,0,0-.647,1.877v6.981H76.041Zm-12.415,0h2.283v6.99a2.551,2.551,0,0,0,.646,1.855,2.139,2.139,0,0,0,1.622.668,2.1,2.1,0,0,0,1.61-.668,2.573,2.573,0,0,0,.637-1.855v-6.99h2.281V38.838H70.423V37.586h-.044a3.6,3.6,0,0,1-2.943,1.4,3.788,3.788,0,0,1-2.551-1.059,3.71,3.71,0,0,1-1.259-3Zm-19.779,0h2.288v1.241h.043a3.8,3.8,0,0,1,3.059-1.383A4.346,4.346,0,0,1,51.2,27.4a5.828,5.828,0,0,1,1.343,1.117,4.61,4.61,0,0,1,3.69-1.535A4.012,4.012,0,0,1,58.9,28.008a3.936,3.936,0,0,1,1.241,3.045v7.785H57.852V31.857A2.522,2.522,0,0,0,57.2,29.98a2.283,2.283,0,0,0-1.688-.655,2.32,2.32,0,0,0-1.7.655,2.469,2.469,0,0,0-.677,1.877v6.981H50.851V31.857A2.525,2.525,0,0,0,50.2,29.98a2.314,2.314,0,0,0-1.7-.655,2.274,2.274,0,0,0-1.684.655,2.452,2.452,0,0,0-.687,1.877v6.981H43.847ZM36.96,23.557h2.283v3.566H40.9v1.794H39.243v6.847q-.024.9.808.872H40.9v2.2H39.713a2.655,2.655,0,0,1-1.966-.767,2.759,2.759,0,0,1-.787-2.122V28.917H35.817V27.123H36.96ZM26.666,27.123h2.283v1.241H29a3.742,3.742,0,0,1,5.337-.485L32.67,29.913a2.359,2.359,0,0,0-1.5-.588,2.112,2.112,0,0,0-1.5.587,2.338,2.338,0,0,0-.722,1.866v7.06H26.666ZM21.62,33a11.085,11.085,0,0,0-.108-1.837,2.222,2.222,0,0,0-.448-.975,1.691,1.691,0,0,0-.742-.623,2.379,2.379,0,0,0-1.091-.238,2.418,2.418,0,0,0-1.07.238,2.053,2.053,0,0,0-.764.623,2.785,2.785,0,0,0-.425.976,9.03,9.03,0,0,0-.131,1.813,8.779,8.779,0,0,0,.131,1.791,3,3,0,0,0,.425,1.019,2.775,2.775,0,0,0,.764.6,2.309,2.309,0,0,0,1.07.25,2.273,2.273,0,0,0,1.091-.25,2.147,2.147,0,0,0,.742-.6,2.382,2.382,0,0,0,.448-1.019A10.4,10.4,0,0,0,21.62,33m-7.062-.023a10.61,10.61,0,0,1,.295-2.851,4.155,4.155,0,0,1,.939-1.641A4.284,4.284,0,0,1,17.1,27.44a4.725,4.725,0,0,1,2.129-.459,4.8,4.8,0,0,1,2.172.462,4.1,4.1,0,0,1,1.266,1.05,3.739,3.739,0,0,1,.961,1.637,11.393,11.393,0,0,1,.273,2.845A11.113,11.113,0,0,1,23.63,35.8a4.086,4.086,0,0,1-.96,1.683,3.641,3.641,0,0,1-.535.508,2.469,2.469,0,0,1-.732.485,4.42,4.42,0,0,1-2.172.508,4.66,4.66,0,0,1-3.439-1.5,4.544,4.544,0,0,1-.939-1.683,10.3,10.3,0,0,1-.295-2.822M3.18,36.492H6.068a3.245,3.245,0,0,0,2.953-1.435,2.8,2.8,0,0,0,.514-1.346,29.542,29.542,0,0,0,.1-3.007q0-2.148-.1-3.076a2.887,2.887,0,0,0-.623-1.5,3.169,3.169,0,0,0-2.844-1.391H3.18ZM.775,22.388H6.342a5.315,5.315,0,0,1,4.847,2.776,5.08,5.08,0,0,1,.729,1.94,34.684,34.684,0,0,1,.119,3.509,24.673,24.673,0,0,1-.185,3.7,4.357,4.357,0,0,1-.261.947,8.792,8.792,0,0,1-.448.847A5.621,5.621,0,0,1,9.2,38.026a5.379,5.379,0,0,1-3.023.812H.775Z" transform="translate(-0.775 -0.28)" fill="#f55500"/>
    <path d="M154.116,52.338c0-.686-.389-1.113-1.2-1.289l-.6-.13c-.48-.1-.651-.315-.651-.667a.763.763,0,0,1,.85-.761,2.5,2.5,0,0,1,1.129.334l.262-.538a2.88,2.88,0,0,0-1.374-.371,1.452,1.452,0,0,0-1.6,1.419,1.272,1.272,0,0,0,1.139,1.271l.56.12c.514.111.741.343.741.761a.8.8,0,0,1-.912.8,2.65,2.65,0,0,1-1.429-.437l-.27.538a3.258,3.258,0,0,0,1.652.465,1.533,1.533,0,0,0,1.7-1.513m-4.1-3.246h-1.13a12.809,12.809,0,0,1,.09-1.335l-.74.166s-.072.724-.072,1.169h-.588v.547h.588v3.173c0,.463.116.761.433.917a1.279,1.279,0,0,0,.588.13,1.632,1.632,0,0,0,.794-.185l-.1-.464a.876.876,0,0,1-.443.093c-.442,0-.578-.176-.578-.686V49.639h.94ZM146.894,49a.823.823,0,0,0-.244-.047,1.623,1.623,0,0,0-1.265.77,1.711,1.711,0,0,0-.144-.751l-.706.194a2.388,2.388,0,0,1,.154.983v3.563h.706V50.818a.848.848,0,0,1,.261-.734,1.067,1.067,0,0,1,.751-.334.576.576,0,0,1,.2.038Zm-4.8,2.133H140.17l.977-3.117Zm1.618,2.579-2.052-6.363H140.7l-2.071,6.363h.751l.6-1.959h2.314l.586,1.959ZM134.7,52.533a.885.885,0,0,1-.27.334,1.273,1.273,0,0,1-.868.3.934.934,0,0,1-.9-.538,2.676,2.676,0,0,1-.18-1.2,2.282,2.282,0,0,1,.289-1.337.948.948,0,0,1,.839-.481,1.2,1.2,0,0,1,1.094.481Zm.851,1.179a4.765,4.765,0,0,1-.137-1.494V47.061l-.7-.12v1.938c0,.334.009.714.009.714a1.481,1.481,0,0,0-1.22-.583,1.391,1.391,0,0,0-.867.286,2.458,2.458,0,0,0-.931,2.143c0,1.474.668,2.336,1.834,2.336a1.412,1.412,0,0,0,1.192-.536,1.682,1.682,0,0,0,.1.473Zm-5.188,0V50.206a1.341,1.341,0,0,0-.109-.538,1.191,1.191,0,0,0-1.1-.677,2,2,0,0,0-1.42.714,1.906,1.906,0,0,0-.162-.723l-.686.194a2.2,2.2,0,0,1,.171.973v3.563h.687V50.271a2.054,2.054,0,0,1,1.246-.651.648.648,0,0,1,.5.2c.126.157.163.277.163.769v3.126Zm-5.712-2.348-.027,1.207a1.235,1.235,0,0,1-1.094.723c-.515,0-.777-.3-.777-.845,0-.7.407-1.1,1.546-1.1.126,0,.233.01.352.018m1.039,2c-.334-.186-.379-.38-.362-1.132l.037-1.52a2.844,2.844,0,0,0-.1-1.021,1.219,1.219,0,0,0-1.248-.723,3.334,3.334,0,0,0-1.889.621l.353.52a2.454,2.454,0,0,1,1.436-.548.728.728,0,0,1,.606.252c.127.147.145.315.145.723v.324s-.127-.009-.317-.009c-1.509,0-2.386.612-2.386,1.659a1.267,1.267,0,0,0,1.447,1.318,1.665,1.665,0,0,0,1.3-.622.939.939,0,0,0,.614.677Zm-6.959-1.03c0-.686-.388-1.113-1.2-1.289l-.6-.13c-.48-.1-.651-.315-.651-.667a.762.762,0,0,1,.849-.761,2.507,2.507,0,0,1,1.13.334l.262-.538a2.879,2.879,0,0,0-1.373-.371,1.452,1.452,0,0,0-1.6,1.419,1.272,1.272,0,0,0,1.139,1.271l.56.12c.516.111.741.343.741.761a.8.8,0,0,1-.912.8,2.652,2.652,0,0,1-1.428-.437l-.271.538a3.258,3.258,0,0,0,1.652.465,1.532,1.532,0,0,0,1.7-1.513M113.6,50.975h-2.061c.037-.956.4-1.437,1.04-1.437a.95.95,0,0,1,.813.407,2.03,2.03,0,0,1,.208,1.03m.75.547v-.1c0-1.1-.127-1.541-.515-1.948a1.643,1.643,0,0,0-1.22-.5,1.661,1.661,0,0,0-1.347.639,2.516,2.516,0,0,0-.542,1.745c0,1.53.749,2.457,2,2.457a2.22,2.22,0,0,0,1.519-.574l-.272-.465a1.525,1.525,0,0,1-1.1.436,1.259,1.259,0,0,1-1.121-.566,1.877,1.877,0,0,1-.208-1.011v-.111ZM109.831,53.2l-.389-.464a1.245,1.245,0,0,1-.967.5c-.722,0-1.111-.567-1.111-1.606a3.393,3.393,0,0,1,.253-1.511.965.965,0,0,1,.849-.519,1.177,1.177,0,0,1,.859.371l.389-.5a1.741,1.741,0,0,0-1.23-.5,1.627,1.627,0,0,0-1.22.538,2.588,2.588,0,0,0-.677,1.966,2.8,2.8,0,0,0,.433,1.641,1.62,1.62,0,0,0,1.437.7,1.734,1.734,0,0,0,1.374-.612m-4.609.511V50.206a1.341,1.341,0,0,0-.109-.538,1.19,1.19,0,0,0-1.1-.677,1.994,1.994,0,0,0-1.419.714,1.9,1.9,0,0,0-.163-.723l-.687.194a2.189,2.189,0,0,1,.172.973v3.563h.687V50.271a2.051,2.051,0,0,1,1.247-.651.646.646,0,0,1,.5.2c.127.157.162.277.162.769v3.126Zm-5.513-2.737H97.648c.036-.956.4-1.437,1.04-1.437a.95.95,0,0,1,.813.407,2.03,2.03,0,0,1,.208,1.03m.751.547v-.1c0-1.1-.128-1.541-.516-1.948a1.643,1.643,0,0,0-1.22-.5,1.661,1.661,0,0,0-1.347.639,2.516,2.516,0,0,0-.542,1.745c0,1.53.751,2.457,2,2.457a2.221,2.221,0,0,0,1.518-.574l-.272-.465a1.526,1.526,0,0,1-1.1.436,1.26,1.26,0,0,1-1.121-.566,1.877,1.877,0,0,1-.208-1.011v-.111Zm-5.016,2.19V48.991l-.734.12v4.6Zm.2-6.047a.555.555,0,0,0-.552-.566.563.563,0,0,0-.552.574.552.552,0,1,0,1.1-.008M93.509,53.2l-.388-.464a1.249,1.249,0,0,1-.968.5c-.723,0-1.111-.567-1.111-1.606a3.393,3.393,0,0,1,.253-1.511.967.967,0,0,1,.849-.519,1.173,1.173,0,0,1,.858.371l.39-.5a1.74,1.74,0,0,0-1.229-.5,1.624,1.624,0,0,0-1.22.538,2.584,2.584,0,0,0-.678,1.966,2.79,2.79,0,0,0,.434,1.641,1.616,1.616,0,0,0,1.436.7,1.733,1.733,0,0,0,1.374-.612m-4.365-1.29a1.792,1.792,0,0,0-.407-1.121,2.118,2.118,0,0,0-1.094-.641l-.713-.231c-.733-.241-1.031-.528-1.031-1.039,0-.649.461-1.048,1.238-1.048a2.469,2.469,0,0,1,1.51.538l.325-.547a3.2,3.2,0,0,0-1.87-.612A1.823,1.823,0,0,0,85.1,49.037a1.5,1.5,0,0,0,.389,1.039,2.336,2.336,0,0,0,1.1.565l.623.2c.751.232,1.113.621,1.113,1.187a1.1,1.1,0,0,1-.443.909,1.418,1.418,0,0,1-.986.278,2.651,2.651,0,0,1-1.662-.547l-.325.593a3.567,3.567,0,0,0,1.987.576,2.349,2.349,0,0,0,1.392-.389,1.84,1.84,0,0,0,.859-1.532m-8.5.622a.885.885,0,0,1-.27.334,1.275,1.275,0,0,1-.867.3.934.934,0,0,1-.905-.538,2.676,2.676,0,0,1-.18-1.2,2.274,2.274,0,0,1,.289-1.337.947.947,0,0,1,.839-.481,1.2,1.2,0,0,1,1.094.481Zm.85,1.179a4.807,4.807,0,0,1-.136-1.494V47.061l-.7-.12v1.938c0,.334.009.714.009.714a1.481,1.481,0,0,0-1.22-.583,1.4,1.4,0,0,0-.869.286,2.463,2.463,0,0,0-.93,2.143c0,1.474.669,2.336,1.835,2.336a1.414,1.414,0,0,0,1.192-.536,1.723,1.723,0,0,0,.1.473Zm-5.73-2.737H73.707c.037-.956.4-1.437,1.04-1.437a.953.953,0,0,1,.814.407,2.032,2.032,0,0,1,.207,1.03m.75.547v-.1c0-1.1-.127-1.541-.515-1.948a1.642,1.642,0,0,0-1.22-.5,1.664,1.664,0,0,0-1.347.639,2.516,2.516,0,0,0-.542,1.745c0,1.53.751,2.457,2,2.457a2.219,2.219,0,0,0,1.518-.574l-.272-.465a1.523,1.523,0,0,1-1.1.436,1.26,1.26,0,0,1-1.121-.566,1.886,1.886,0,0,1-.208-1.011v-.111ZM71.5,53.712V48.991l-.732.12v4.6Zm.2-6.047a.555.555,0,0,0-.552-.566.563.563,0,0,0-.552.574.552.552,0,1,0,1.1-.008M69.55,53.7l-.144-.473a.507.507,0,0,1-.09.018c-.2,0-.254-.1-.254-.464V48.062a4.171,4.171,0,0,0-.117-1.093l-.7.139a3.454,3.454,0,0,1,.108.946v4.9a.816.816,0,0,0,.217.658.744.744,0,0,0,.534.2.877.877,0,0,0,.451-.1m-3.371-2.218a2.751,2.751,0,0,1-.189,1.169,1.037,1.037,0,0,1-.95.576,1.5,1.5,0,0,1-1.1-.6V50.3a1.533,1.533,0,0,1,1.2-.649.9.9,0,0,1,.831.51,3.542,3.542,0,0,1,.208,1.325m.75-.091a2.814,2.814,0,0,0-.5-1.818A1.524,1.524,0,0,0,65.23,49a1.712,1.712,0,0,0-1.328.677,3.624,3.624,0,0,0-.045-.7l-.724.13a3.413,3.413,0,0,1,.1.992V55.64l.705-.139V53.294a1.736,1.736,0,0,0,1.238.538,1.6,1.6,0,0,0,1.392-.844,2.84,2.84,0,0,0,.361-1.595m-5.865.091a2.749,2.749,0,0,1-.19,1.169,1.034,1.034,0,0,1-.949.576,1.508,1.508,0,0,1-1.1-.6V50.3a1.535,1.535,0,0,1,1.2-.649.9.9,0,0,1,.831.51,3.542,3.542,0,0,1,.208,1.325m.75-.091a2.814,2.814,0,0,0-.5-1.818,1.521,1.521,0,0,0-1.2-.575,1.71,1.71,0,0,0-1.328.677,3.547,3.547,0,0,0-.046-.7l-.723.13a3.413,3.413,0,0,1,.1.992V55.64l.7-.139V53.294a1.74,1.74,0,0,0,1.238.538,1.6,1.6,0,0,0,1.393-.844,2.84,2.84,0,0,0,.361-1.595m-6.291-.26H53.6l.976-3.117Zm1.618,2.579L55.09,47.349h-.967l-2.069,6.363H52.8l.6-1.959h2.314l.586,1.959Zm-7.076-6.447A1.774,1.774,0,0,0,49.071,47a1.213,1.213,0,0,0-.795.242,1.3,1.3,0,0,0-.5,1.131v.723h-.433v.547h.433v4.073h.742V49.639h1.03l.217-.547H48.52v-.713c0-.529.217-.817.614-.817a1.387,1.387,0,0,1,.669.214Zm-4.618,4.267a2.789,2.789,0,0,1-.136,1,.979.979,0,0,1-.976.7,1.059,1.059,0,0,1-.913-.465,3.319,3.319,0,0,1-.281-1.511,2.637,2.637,0,0,1,.218-1.206,1.023,1.023,0,0,1,.922-.5,1.041,1.041,0,0,1,.959.593,3.371,3.371,0,0,1,.207,1.391m.8-.056a2.994,2.994,0,0,0-.416-1.716,1.772,1.772,0,0,0-1.545-.807c-1.184,0-1.916.919-1.916,2.421,0,1.521.7,2.458,1.943,2.458,1.13,0,1.934-.816,1.934-2.356m-6.868-2.384h-.8l-.886,3.033-.28.974H37.4s-.137-.714-.272-1.15l-.922-3-.7.242.967,2.893c.154.464.4,1.363.452,1.66l.289-.046c-.244.937-.46,1.233-1.04,1.419l.209.491c.786-.194,1.157-.807,1.455-1.734Zm-4.483,0H33.77a12.809,12.809,0,0,1,.09-1.335l-.741.166s-.073.724-.073,1.169H32.46v.547h.586v3.173c0,.463.119.761.435.917a1.274,1.274,0,0,0,.587.13,1.639,1.639,0,0,0,.8-.185l-.1-.464a.878.878,0,0,1-.443.093c-.442,0-.578-.176-.578-.686V49.639h.94Zm-3.633,4.62V48.991l-.733.12v4.6Zm.2-6.047a.554.554,0,0,0-.551-.566.562.562,0,0,0-.551.574.551.551,0,1,0,1.1-.008M29.2,52.338c0-.686-.389-1.113-1.2-1.289l-.6-.13c-.479-.1-.65-.315-.65-.667a.762.762,0,0,1,.849-.761,2.507,2.507,0,0,1,1.13.334l.262-.538a2.879,2.879,0,0,0-1.373-.371,1.452,1.452,0,0,0-1.6,1.419,1.272,1.272,0,0,0,1.139,1.271l.56.12c.515.111.741.343.741.761a.8.8,0,0,1-.912.8,2.653,2.653,0,0,1-1.429-.437l-.271.538a3.264,3.264,0,0,0,1.653.465,1.533,1.533,0,0,0,1.7-1.513M25.275,49a.823.823,0,0,0-.244-.047,1.623,1.623,0,0,0-1.265.77,1.7,1.7,0,0,0-.145-.751l-.7.194a2.388,2.388,0,0,1,.154.983v3.563h.7V50.818a.848.848,0,0,1,.262-.734,1.069,1.069,0,0,1,.751-.334.566.566,0,0,1,.2.038Zm-4.411,1.975H18.8c.036-.956.4-1.437,1.039-1.437a.952.952,0,0,1,.814.407,2.032,2.032,0,0,1,.207,1.03m.75.547v-.1c0-1.1-.126-1.541-.515-1.948a1.642,1.642,0,0,0-1.22-.5,1.661,1.661,0,0,0-1.346.639,2.511,2.511,0,0,0-.542,1.745c0,1.53.749,2.457,2,2.457a2.218,2.218,0,0,0,1.519-.574l-.271-.465a1.528,1.528,0,0,1-1.1.436,1.258,1.258,0,0,1-1.121-.566,1.877,1.877,0,0,1-.208-1.011v-.111Zm-4.3-2.43h-.75l-1.031,3.071a6.6,6.6,0,0,0-.216.778H15.3s-.09-.408-.218-.788l-1.047-3.181-.724.158,1.618,4.627h.7Zm-5,4.62V48.991l-.732.12v4.6Zm.2-6.047a.555.555,0,0,0-.552-.566.562.562,0,0,0-.551.574.552.552,0,1,0,1.1-.008M9.93,53.712V50.206a1.374,1.374,0,0,0-.107-.538,1.2,1.2,0,0,0-1.1-.677,2,2,0,0,0-1.419.714,1.9,1.9,0,0,0-.163-.723l-.686.194a2.2,2.2,0,0,1,.171.973v3.563H7.31V50.271a2.049,2.049,0,0,1,1.246-.651.644.644,0,0,1,.5.2c.128.157.163.277.163.769v3.126ZM4.888,51.875V47.349H4.155v4.433a1.52,1.52,0,0,1-.234.992,1.322,1.322,0,0,1-1.094.4,1.187,1.187,0,0,1-1.211-.622,3.012,3.012,0,0,1-.108-.919V47.349H.775v4.562a2.2,2.2,0,0,0,.181.992,1.807,1.807,0,0,0,1.835.92,2.305,2.305,0,0,0,1.626-.493c.371-.324.471-.686.471-1.455" transform="translate(-0.775 -0.28)"/>
  </g>
</svg>
